<svg width="54" height="55" viewBox="0 0 54 55" fill="none" xmlns="http://www.w3.org/2000/svg">
<g clip-path="url(#clip0)">
<path d="M27 1C12.6406 1 1 12.8645 1 27.5C1 42.1355 12.6406 54 27 54C41.3594 54 53 42.1355 53 27.5C53 12.8645 41.3594 1 27 1Z" stroke="white" stroke-width="2"/>
<path d="M34.355 26.619C34.5145 26.7044 34.6478 26.8315 34.7408 26.9868C34.8337 27.142 34.8828 27.3196 34.8828 27.5005C34.8828 27.6814 34.8337 27.859 34.7408 28.0142C34.6478 28.1695 34.5145 28.2966 34.355 28.382L23.473 34.212C23.3206 34.2938 23.1495 34.3347 22.9766 34.3307C22.8036 34.3266 22.6347 34.2778 22.4863 34.1889C22.3378 34.1 22.215 33.9742 22.1298 33.8236C22.0446 33.6731 21.9998 33.503 22 33.33V21.67C22.0001 21.4972 22.045 21.3274 22.1302 21.1772C22.2155 21.0269 22.3382 20.9013 22.4864 20.8125C22.6347 20.7238 22.8034 20.675 22.9761 20.6709C23.1488 20.6668 23.3197 20.7075 23.472 20.789L34.355 26.619Z" fill="white"/>
</g>
<defs>
<clipPath id="clip0">
<rect width="54" height="55" fill="white"/>
</clipPath>
</defs>
</svg>
